<?xml version="1.0" encoding="UTF-8"?>
<svg id="Ebene_1" xmlns="http://www.w3.org/2000/svg" xmlns:xlink="http://www.w3.org/1999/xlink" version="1.1" viewBox="0 0 251.6 94.5">
  <!-- Generator: Adobe Illustrator 29.3.0, SVG Export Plug-In . SVG Version: 2.1.0 Build 146)  -->
  <defs>
    <style>
      .st0 {
        fill: url(#Verlauf_4-farbig_CMYK);
      }

      .st1 {
        fill: none;
        stroke: url(#Unbenannter_Verlauf_4);
        stroke-linecap: round;
        stroke-linejoin: round;
        stroke-width: 2.6px;
      }

      .st2 {
        fill: #373a3b;
      }

      .st3 {
        fill: url(#Unbenannter_Verlauf_88);
      }
    </style>
    <linearGradient id="Unbenannter_Verlauf_4" data-name="Unbenannter Verlauf 4" x1="152.6" y1="17.9" x2="152.6" y2="17.9" gradientUnits="userSpaceOnUse">
      <stop offset="0" stop-color="#066938"/>
      <stop offset="0" stop-color="#10733b"/>
      <stop offset=".6" stop-color="#48ae4d"/>
      <stop offset="1" stop-color="#8ec045"/>
    </linearGradient>
    <linearGradient id="Unbenannter_Verlauf_88" data-name="Unbenannter Verlauf 88" x1="154.1" y1="27.3" x2="203" y2="9.5" gradientUnits="userSpaceOnUse">
      <stop offset="0" stop-color="#006a3b"/>
      <stop offset=".4" stop-color="#50af47"/>
      <stop offset=".9" stop-color="#8ac053"/>
      <stop offset="1" stop-color="#94c356"/>
    </linearGradient>
    <linearGradient id="Verlauf_4-farbig_CMYK" data-name="Verlauf 4-farbig CMYK" x1="160.3" y1="56.1" x2="187.2" y2="51.3" gradientUnits="userSpaceOnUse">
      <stop offset="0" stop-color="#006a3b"/>
      <stop offset=".4" stop-color="#50af47"/>
      <stop offset=".9" stop-color="#8ac053"/>
      <stop offset="1" stop-color="#94c356"/>
    </linearGradient>
  </defs>
  <g>
    <path class="st2" d="M188.3,46c4.6-1.6,9.7-2.6,14.4-2.6,8.6,0,13.9,3.4,13.9,11.9v23.1h-4.7v-22.1c0-7-4.9-8.5-9.6-8.5s-6.8.6-9.3,1.3v29.4h-4.7v-32.4Z"/>
    <path class="st2" d="M223.4,70.3c3.8,3,7.1,4.8,11.9,4.8s10.4-2.4,10.4-8.6-4.2-7.7-9.7-9.7c-8.3-3.1-12.8-5.8-12.8-13.7s6.6-12,13.6-12,8.3,1.4,11.1,3.7v5c-3.8-3-6.9-4.6-11.1-4.6s-8.9,3.1-8.9,7.9,2.7,6.7,9.4,9c8.6,3,13.2,6.2,13.2,14.4s-6.8,12.7-15.1,12.7-9-1.4-11.9-3.6v-5.3Z"/>
  </g>
  <path class="st1" d="M152.6,17.9"/>
  <g>
    <path class="st2" d="M28,74.2v4.2H1.2V31.8h26.5v4.2H6.1v16.5h20.3v4.2H6.1v17.4h22Z"/>
    <path class="st2" d="M79.4,55.5c0-6.4-4.3-7.8-8-7.8s-8,1-10,2c.6,1.5,1,3.4,1,5.7v23.2h-4.7v-22.9c0-6.4-4.2-7.8-8.1-7.8s-6.9.8-9,1.6v29.2h-4.7v-32c4.5-1.8,9.2-3,13.7-3s7.1.9,9.2,2.7c4.1-1.6,8.5-2.7,12.6-2.7,8.2,0,12.7,3.4,12.7,11.9v23.1h-4.7v-22.9Z"/>
    <path class="st2" d="M93.6,45.6c3.1-1.2,7.5-2.2,11.9-2.2,11.8,0,18.9,6.1,18.9,17.9s-7.4,17.9-18.6,17.9-5.7-.5-7.5-1.4v14.8h-4.7v-46.9ZM98.3,73.7c2.2.9,4.6,1.4,7.5,1.4,8.3,0,13.8-5.1,13.8-13.8s-5.1-13.6-14.1-13.6-5.4.3-7.2.9v25Z"/>
    <path class="st2" d="M136.3,78.4h-4.7V25.1h4.7v53.4ZM136.6,59.9l17.3-15.7h6.6l-17.7,15.5,18.1,18.7h-6.3l-18-18.5Z"/>
  </g>
  <path class="st3" d="M172.3,18.7l1.4,3.8c4.4-1.7,9.3-.6,12.7,2.6,1.7,1.7,2.8,3.8,3.3,6l3.9-1c-.7-2.9-2.1-5.7-4.4-7.9-4.4-4.4-11.1-5.8-16.9-3.5ZM208.9,26.1l-3.9,1c-1.9-7.9-7.3-14.8-15-18.5-10.6-5.1-23.2-2.9-31.6,5.4l-2.9-2.9c9.5-9.5,24-11.9,36.2-6.1,8.7,4.2,14.9,12,17.1,21.1ZM197,18.3l-3.1,2.5c-5.4-6.7-14.5-9.3-22.6-6.4-6.6,2.3-11.4,7.8-13,14.4l-3.9-1c1.9-7.9,7.7-14.4,15.6-17.2,9.7-3.4,20.6-.4,27.1,7.7Z"/>
  <path class="st0" d="M183.9,33.5c0,3-2.5,5.7-5.7,5.7s-5.7-2.6-5.7-5.7,2.6-5.7,5.7-5.7,5.7,2.5,5.7,5.7ZM175.9,78.4l4.7-5.4v-28.8h-1.5s-14.6,0-14.6,0l-5.4,4.7h16.8v29.5Z"/>
</svg>